{"glyphs":{"0":{"ha":522,"x_min":0,"x_max":0,"o":"m 217 939 b 82 726 126 939 82 868 l 82 292 b 217 79 82 150 126 79 b 351 292 307 79 351 150 l 351 726 b 217 939 351 868 307 939 z m 303 292 b 217 128 303 129 239 128 b 131 292 194 128 131 129 l 131 726 b 217 889 131 888 194 889 b 303 726 239 889 303 888 z m 385 933 b 217 1021 347 992 290 1021 b 49 933 143 1021 86 992 b 0 726 17 882 0 814 l 0 292 b 49 85 0 204 17 136 b 217 -3 86 26 143 -3 b 385 85 290 -3 347 26 b 435 292 418 135 435 204 l 435 726 b 385 933 435 814 418 883 z m 385 292 b 344 113 385 215 371 156 b 217 46 315 68 272 46 b 90 113 160 46 118 68 b 49 292 63 154 49 214 l 49 726 b 90 906 49 806 63 865 b 217 971 117 949 160 971 b 344 906 274 971 315 949 b 385 726 371 865 385 806 z "},"1":{"ha":382,"x_min":0,"x_max":0,"o":"m 160 782 l 160 -3 l 208 -3 l 208 938 l 67 731 l 101 703 z m 242 1021 l 226 1021 l 186 1021 l 164 1021 l 0 786 l 42 751 l 200 982 l 242 982 l 242 -3 l 290 -3 l 290 1021 l 274 1021 z "},"2":{"ha":500,"x_min":0,"x_max":0,"o":"m 49 747 b 90 914 49 821 63 876 b 217 971 119 951 163 971 b 344 903 271 971 314 949 b 385 760 369 865 383 818 l 385 747 b 282 503 381 635 338 576 b 231 429 265 479 249 457 b 82 79 142 296 86 213 l 435 79 l 435 128 l 368 128 l 217 128 l 136 128 b 272 403 151 217 193 282 b 322 472 289 429 306 451 b 433 747 378 546 429 619 l 435 747 l 435 760 l 433 760 b 217 1021 429 917 343 1021 b 51 943 128 1021 78 978 b 0 747 17 897 0 832 l 0 682 l 49 682 z m 217 46 l 49 46 l 49 63 b 203 449 49 217 110 308 b 257 522 224 475 239 499 b 351 753 311 592 351 649 b 317 885 351 807 340 851 b 217 939 293 921 260 939 b 117 894 172 939 139 924 b 82 747 93 861 82 813 l 82 682 l 131 682 l 131 747 b 217 889 131 889 188 889 b 303 753 293 889 303 785 b 217 551 303 664 268 622 b 163 475 200 529 183 504 b 0 63 67 335 0 229 l 0 -3 l 217 -3 l 368 -3 l 435 -3 l 435 46 z "},"3":{"ha":500,"x_min":0,"x_max":0,"o":"m 340 508 b 347 514 344 510 343 513 b 435 735 388 553 435 622 b 386 925 435 811 418 874 b 217 1021 346 989 290 1021 b 49 933 144 1021 89 992 b 0 728 17 885 0 815 l 0 663 l 49 663 l 49 728 b 90 906 49 806 63 865 b 217 971 117 949 160 971 b 385 735 321 971 385 879 b 313 550 385 639 346 582 b 251 507 296 533 275 519 b 313 467 274 497 294 485 b 385 282 346 435 385 376 b 217 46 385 138 321 46 b 49 289 139 46 49 88 l 49 354 l 0 354 l 0 289 b 49 83 0 200 17 133 b 217 -3 88 26 143 -3 b 386 90 288 -3 347 31 b 435 282 418 140 435 206 b 347 501 435 394 388 464 z m 351 735 b 317 882 351 794 340 844 b 217 939 293 919 260 939 b 82 728 126 939 82 868 l 82 663 l 131 663 l 131 728 b 217 889 131 889 194 889 b 303 735 299 889 303 750 b 181 574 303 614 219 574 l 118 574 l 118 524 l 181 524 b 351 735 251 524 351 590 z m 217 79 b 317 135 260 79 293 97 b 351 282 340 172 351 222 b 290 443 351 365 318 415 b 181 492 253 478 210 492 l 164 492 l 118 492 l 118 442 l 158 442 l 181 442 b 303 282 219 442 303 400 b 217 128 303 254 299 128 b 158 156 182 128 168 140 b 131 289 146 176 131 211 l 131 354 l 82 354 l 82 289 b 118 129 82 218 94 164 b 217 79 139 96 172 79 z "},"4":{"ha":528,"x_min":0,"x_max":0,"o":"m 338 1021 l 319 1021 l 0 414 l 0 282 l 308 282 l 308 -3 l 357 -3 l 357 332 l 40 332 l 40 383 l 365 972 l 390 972 l 390 -3 l 439 -3 l 439 1021 l 410 1021 z m 357 364 l 357 892 l 81 389 l 81 364 z m 308 414 l 150 414 l 308 718 z "},"5":{"ha":517,"x_min":0,"x_max":0,"o":"m 131 363 l 131 406 b 157 510 131 451 139 486 b 217 536 167 521 179 536 b 276 510 254 536 267 522 b 303 383 289 493 303 457 l 303 285 b 217 128 303 225 283 128 b 131 214 151 128 131 192 l 131 236 l 82 236 l 82 214 b 217 79 82 157 129 79 b 317 138 258 79 292 99 b 351 285 340 175 351 225 l 351 383 b 217 585 351 518 307 585 b 82 406 100 585 82 472 l 49 406 l 49 411 l 49 971 l 82 971 l 435 971 l 435 1021 l 131 1021 l 0 1021 l 0 406 l 0 363 l 0 360 l 131 360 z m 435 889 l 435 939 l 82 939 l 82 546 l 90 558 b 217 618 119 599 163 618 b 344 557 272 618 315 597 b 385 383 371 517 385 460 l 385 285 b 344 119 385 219 371 163 b 217 46 314 71 271 46 b 92 104 167 46 125 65 b 49 214 65 136 49 176 l 49 236 l 0 236 l 0 214 b 54 72 0 165 19 113 b 217 -3 94 24 151 -3 b 386 93 290 -3 346 29 b 435 285 418 144 435 208 l 435 383 b 385 585 435 471 418 538 b 217 667 358 622 307 667 b 131 651 188 667 158 661 l 131 889 z "},"6":{"ha":511,"x_min":0,"x_max":0,"o":"m 49 671 b 89 888 49 764 63 836 b 217 971 118 943 160 971 b 343 913 271 971 314 951 b 385 763 371 876 385 826 l 385 719 l 435 719 l 435 763 b 383 942 435 836 418 896 b 217 1021 343 994 288 1021 b 46 911 143 1021 83 982 b 0 671 15 853 0 772 l 0 394 l 0 392 l 0 260 b 51 78 0 183 17 124 b 217 -3 92 24 146 -3 b 435 290 346 -3 435 114 l 435 392 b 385 597 435 479 418 547 b 217 681 346 653 290 681 b 131 661 188 681 158 674 l 131 671 b 217 889 131 736 140 889 b 278 863 254 889 268 875 b 303 763 294 842 303 808 l 303 719 l 351 719 l 351 763 b 317 893 351 819 340 864 b 217 939 294 924 261 939 b 82 671 100 939 82 771 l 82 544 b 217 631 113 601 157 631 b 344 569 272 631 315 610 b 385 392 371 529 385 469 l 385 290 b 344 121 385 224 371 164 b 217 46 313 71 271 46 b 49 260 111 46 49 126 l 49 392 l 49 394 z m 217 79 b 317 139 258 79 292 99 b 351 290 340 178 351 228 l 351 392 b 217 599 351 529 307 599 b 118 540 174 599 142 579 b 82 393 94 503 82 454 l 82 260 b 117 126 82 203 93 158 b 217 79 140 94 174 79 z m 217 549 b 303 392 244 549 303 547 l 303 290 b 217 128 303 229 283 128 b 157 156 179 128 167 143 b 131 260 139 179 131 214 l 131 393 b 217 549 131 414 138 549 z "},"7":{"ha":497,"x_min":0,"x_max":0,"o":"m 15 939 l 15 889 l 297 889 l -10 -3 l 47 -3 l 371 939 l 281 939 z m 15 1021 l 15 971 l 403 971 l 403 931 l 83 -3 l 133 -3 l 442 889 l 442 896 l 442 896 l 442 1021 z "},"8":{"ha":539,"x_min":0,"x_max":0,"o":"m 382 732 b 232 939 382 876 338 939 b 82 732 126 939 82 876 b 232 525 82 588 126 525 b 382 732 338 525 382 588 z m 131 732 b 232 889 131 888 188 889 b 332 732 275 889 332 888 b 232 575 332 576 275 575 b 131 732 188 575 131 576 z m 411 525 b 464 732 446 574 464 642 b 411 940 464 822 446 892 b 232 1021 371 994 311 1021 b 53 940 153 1021 93 994 b 0 732 18 893 0 824 b 53 525 0 640 18 571 l 65 508 l 53 493 b 0 285 18 446 0 376 b 53 78 0 193 18 124 b 232 -3 92 24 151 -3 b 411 78 311 -3 371 24 b 464 285 446 126 464 194 b 411 493 464 375 446 444 l 399 508 z m 232 46 b 49 285 106 46 49 122 b 92 464 49 367 63 426 b 146 508 107 485 125 499 b 49 732 81 539 49 614 b 232 971 49 897 106 971 b 414 732 356 971 414 897 b 317 508 414 613 382 538 b 371 464 338 499 356 485 b 414 285 400 426 414 367 b 232 46 414 122 356 46 z m 232 493 b 82 285 126 493 82 431 b 232 79 82 140 126 79 b 382 285 338 79 382 140 b 232 493 382 431 338 493 z m 232 128 b 131 285 188 128 131 129 b 158 415 131 363 146 399 b 232 443 168 431 183 443 b 306 415 281 443 296 431 b 332 285 318 399 332 363 b 232 128 332 129 275 128 z "},"9":{"ha":511,"x_min":0,"x_max":0,"o":"m 435 761 b 383 943 435 835 418 896 b 217 1021 343 994 288 1021 b 49 924 146 1021 88 986 b 0 729 17 872 0 808 l 0 626 b 50 421 0 538 17 469 b 217 336 88 364 143 336 b 303 356 249 336 278 343 l 303 346 b 217 128 303 263 292 128 b 131 267 196 128 131 128 l 131 311 l 82 311 l 82 267 b 117 126 82 207 93 160 b 217 79 140 94 174 79 b 351 346 328 79 351 224 l 351 472 b 217 385 324 417 276 385 b 90 449 160 385 118 406 b 49 626 63 488 49 547 l 49 729 b 217 971 49 878 115 971 b 385 761 324 971 385 894 l 385 626 l 385 625 l 385 346 b 344 128 385 251 371 179 b 217 46 317 74 274 46 b 49 267 110 46 49 126 l 49 311 l 0 311 l 0 267 b 50 79 0 188 17 125 b 217 -3 89 25 146 -3 b 389 104 293 -3 350 33 b 435 346 418 164 435 242 l 435 625 l 435 626 z m 217 939 b 118 881 174 939 142 919 b 82 729 94 843 82 792 l 82 626 b 217 418 82 488 126 418 b 317 476 260 418 293 438 b 351 625 340 514 351 564 l 351 761 b 317 893 351 817 340 861 b 217 939 294 924 261 939 z m 303 625 b 217 467 303 603 299 467 b 131 626 189 467 131 467 l 131 729 b 217 889 131 746 132 889 b 303 761 239 889 303 889 z "}," ":{"ha":347,"x_min":0,"x_max":0,"o":""}," ":{"ha":347,"x_min":0,"x_max":0,"o":""},"e":{"ha":517,"x_min":0,"x_max":0,"o":"m 49 496 l 49 528 l 49 974 l 424 974 l 424 1024 l 0 1024 l 0 0 l 424 0 l 424 49 l 49 49 z m 424 496 l 82 496 l 82 82 l 424 82 l 424 131 l 131 131 l 131 446 l 424 446 z m 424 942 l 82 942 l 82 528 l 424 528 l 424 578 l 131 578 l 131 892 l 424 892 z "},"h":{"ha":568,"x_min":0,"x_max":0,"o":"m 49 529 l 49 1025 l 0 1025 l 0 1 l 49 1 l 49 496 z m 82 529 l 378 529 l 378 1025 l 328 1025 l 328 578 l 131 578 l 131 1025 l 82 1025 z m 378 496 l 82 496 l 82 1 l 131 1 l 131 447 l 328 447 l 328 1 l 378 1 z m 410 529 l 410 496 l 410 1 l 460 1 l 460 1025 l 410 1025 z "},"i":{"ha":281,"x_min":0,"x_max":0,"o":"m 42 1025 l 42 1 l 90 1 l 90 1025 z m 124 1 l 172 1 l 172 1025 l 124 1025 z "},"j":{"ha":563,"x_min":0,"x_max":0,"o":"m 82 339 l 82 274 b 119 128 82 208 94 160 b 229 83 143 99 181 83 b 339 128 279 83 315 99 b 376 274 364 160 376 208 l 376 1025 l 328 1025 l 328 274 b 301 158 328 219 319 182 b 229 132 292 147 275 132 b 131 274 193 132 131 132 l 131 339 z m 410 1025 l 410 274 b 365 107 410 200 394 144 b 229 50 335 69 289 50 b 94 107 169 50 125 69 b 49 274 64 144 49 200 l 49 339 l 0 339 l 0 274 b 56 76 0 189 18 122 b 229 1 83 42 136 1 b 403 76 324 1 376 42 b 458 274 440 122 458 189 l 458 1025 z "},"k":{"ha":594,"x_min":0,"x_max":0,"o":"m 50 1025 l 1 1025 l 1 375 l 0 372 l 1 372 l 1 1 l 50 1 z m 83 413 l 451 1025 l 394 1025 l 132 578 l 132 1025 l 83 1025 z m 83 351 l 83 1 l 132 1 l 132 336 l 182 421 l 392 1 l 447 1 l 183 517 z m 203 549 l 486 1 l 542 1 l 261 546 l 551 1025 l 490 1025 z "},"l":{"ha":494,"x_min":0,"x_max":0,"o":"m 82 83 l 446 83 l 446 132 l 131 132 l 131 1025 l 82 1025 z m 49 1025 l 0 1025 l 0 1 l 446 1 l 446 50 l 49 50 z "},"m":{"ha":747,"x_min":0,"x_max":0,"o":"m 82 1 l 131 1 l 131 492 l 272 1 l 371 1 l 513 492 l 513 1 l 561 1 l 561 843 l 322 7 l 82 843 z m 594 1025 l 579 1025 l 539 1025 l 528 1025 l 322 304 l 115 1025 l 94 1025 l 64 1025 l 49 1025 l 15 1025 l 0 1025 l 0 1 l 49 1 l 49 975 l 78 975 l 322 126 l 565 975 l 594 975 l 594 1 l 643 1 l 643 1025 l 617 1025 z "},"n":{"ha":590,"x_min":0,"x_max":0,"o":"m 442 53 l 414 53 l 82 876 l 82 3 l 131 3 l 131 622 l 381 3 l 397 3 l 435 3 l 442 3 l 476 3 l 492 3 l 492 1026 l 442 1026 z m 410 153 l 410 1026 l 360 1026 l 360 407 l 110 1026 l 93 1026 l 57 1026 l 49 1026 l 14 1026 l 0 1026 l 0 3 l 49 3 l 49 976 l 78 976 z "},"o":{"ha":571,"x_min":0,"x_max":0,"o":"m 243 944 b 124 894 189 944 149 928 b 82 736 96 861 82 808 l 82 294 b 243 85 82 154 136 85 b 404 294 350 85 404 154 l 404 736 b 363 894 404 808 390 861 b 243 944 338 928 297 944 z m 356 294 b 243 133 356 133 282 133 b 131 294 204 133 131 133 l 131 736 b 243 896 131 896 204 896 b 356 736 282 896 356 896 z m 428 946 b 243 1026 399 983 343 1026 b 58 946 143 1026 88 983 b 0 736 19 896 0 826 l 0 294 b 58 85 0 203 19 133 b 243 3 88 47 143 3 b 428 85 343 3 399 47 b 486 294 467 133 486 203 l 486 736 b 428 946 486 826 467 896 z m 438 294 b 389 115 438 215 421 156 b 243 51 354 72 306 51 b 97 115 181 51 132 72 b 49 294 65 156 49 215 l 49 736 b 97 915 49 815 65 875 b 243 978 131 957 179 978 b 389 915 307 978 356 957 b 438 736 421 875 438 815 z "},"p":{"ha":533,"x_min":0,"x_max":0,"o":"m 392 739 b 349 897 392 813 378 865 b 213 944 321 929 275 944 l 82 944 l 82 532 l 213 532 b 392 739 339 532 392 593 z m 131 896 l 213 896 b 342 739 297 896 342 871 b 311 613 342 678 332 636 b 213 581 304 603 285 581 l 131 581 z m 49 944 l 0 944 l 0 3 l 49 3 z m 411 950 b 213 1026 367 1001 300 1026 l 0 1026 l 0 978 l 49 978 l 79 978 l 213 978 b 424 739 357 978 424 901 b 213 499 424 574 357 499 l 82 499 l 82 3 l 131 3 l 131 450 l 213 450 b 411 526 300 450 367 475 b 474 739 453 575 474 646 b 411 950 474 832 453 903 z "},"q":{"ha":563,"x_min":0,"x_max":0,"o":"m 358 83 b 243 49 326 60 289 49 b 97 114 179 49 131 71 b 49 297 65 157 49 218 l 49 736 b 243 974 49 894 114 974 b 436 736 372 974 436 894 l 436 297 b 389 114 436 219 421 158 b 382 107 385 110 386 108 l 522 -62 l 582 -62 l 442 107 b 486 297 471 156 486 219 l 486 736 b 243 1024 486 986 333 1024 b 0 736 150 1024 0 986 l 0 297 b 58 85 0 206 19 135 b 243 0 88 46 143 0 b 344 19 282 0 315 7 l 411 -62 l 479 -62 z m 318 253 l 260 253 l 360 132 b 403 297 389 167 403 222 l 403 736 b 243 942 403 876 354 942 b 82 736 132 942 82 876 l 82 297 b 243 82 82 154 136 82 b 338 110 282 82 314 92 l 217 253 l 154 253 l 253 131 l 243 131 b 163 164 193 131 174 149 b 131 297 142 190 131 235 l 131 736 b 243 892 131 881 188 892 b 354 736 297 892 354 881 l 354 297 b 347 217 354 269 351 238 z "},"r":{"ha":543,"x_min":0,"x_max":0,"o":"m 393 0 l 393 303 b 213 488 393 421 328 488 l 196 488 l 82 488 l 82 0 l 131 0 l 131 438 l 147 438 l 213 438 b 343 303 300 438 343 393 l 343 0 z m 49 942 l 0 942 l 0 0 l 49 0 z m 213 521 b 390 732 339 521 390 582 b 349 893 390 806 376 860 b 213 942 321 925 275 942 l 82 942 l 82 521 l 196 521 z m 131 569 l 131 892 l 213 892 b 342 732 297 892 342 869 b 311 601 342 671 332 628 b 213 569 304 592 283 569 l 147 569 z m 397 503 b 411 517 403 507 407 513 b 472 732 451 565 472 638 b 411 946 472 828 451 899 b 213 1024 367 997 300 1024 l 0 1024 l 0 974 l 49 974 l 65 974 l 213 974 b 374 914 286 974 339 954 b 424 732 407 875 424 814 b 307 503 424 608 385 532 b 365 465 329 493 349 481 b 425 303 406 425 425 371 l 425 0 l 475 0 l 475 303 b 397 503 475 388 447 454 z "},"s":{"ha":551,"x_min":0,"x_max":0,"o":"m 403 488 b 282 560 358 531 308 549 l 260 569 b 131 731 194 594 131 636 b 244 892 131 769 139 892 b 357 731 283 892 357 892 l 357 665 l 407 665 l 407 731 b 365 892 407 803 393 857 b 244 942 339 925 299 942 b 82 731 125 942 82 826 b 240 524 82 594 189 546 l 263 514 b 439 283 311 496 439 443 b 390 118 439 217 422 158 b 244 49 357 72 306 49 b 97 110 179 49 131 69 b 49 290 65 150 49 211 l 49 356 l 0 356 l 0 290 b 60 79 0 199 19 128 b 244 0 101 26 163 0 b 431 88 324 0 385 29 b 489 283 469 139 489 204 b 403 488 489 367 460 435 z m 83 525 b 207 449 128 482 178 461 l 232 438 b 357 283 292 411 357 379 b 244 131 357 226 344 131 b 163 161 193 131 172 149 b 131 290 142 188 131 231 l 131 356 l 82 356 l 82 290 b 124 131 82 218 96 165 b 244 82 150 99 190 82 b 407 283 346 82 407 156 b 250 483 407 421 297 465 l 226 494 b 49 731 174 517 49 569 b 97 901 49 801 65 858 b 244 974 132 950 182 974 b 390 911 310 974 358 953 b 439 731 422 872 439 813 l 439 665 l 489 665 l 489 731 b 429 943 489 821 469 892 b 244 1024 400 981 344 1024 b 0 731 99 1024 0 904 b 83 525 0 647 28 579 z "},"t":{"ha":588,"x_min":0,"x_max":0,"o":"m 264 974 l 510 974 l 510 1024 l -14 1024 l -14 974 l 232 974 z m 232 942 l -14 942 l -14 892 l 182 892 l 182 0 l 232 0 z m 264 49 l 264 0 l 314 0 l 314 892 l 510 892 l 510 942 l 264 942 z "},"u":{"ha":563,"x_min":0,"x_max":0,"o":"m 82 1024 l 82 272 b 119 126 82 207 94 158 b 229 82 143 97 181 82 b 339 126 279 82 315 97 b 376 272 364 158 376 207 l 376 1024 l 328 1024 l 328 272 b 229 131 328 131 265 131 b 131 272 193 131 131 131 l 131 1024 z m 410 1024 l 410 272 b 364 107 410 199 394 144 b 229 49 335 68 289 49 b 94 107 169 49 125 68 b 49 272 64 144 49 199 l 49 1024 l 0 1024 l 0 272 b 56 76 0 188 18 122 b 229 0 83 39 136 0 b 403 76 322 0 375 39 b 458 272 440 122 458 188 l 458 1024 z "},"v":{"ha":640,"x_min":0,"x_max":0,"o":"m 479 1024 l 306 336 l 135 1024 l 83 1024 l 306 133 l 528 1024 z m 319 54 l 292 54 l 49 1024 l 0 1024 l 254 0 l 267 0 l 306 0 l 307 0 l 344 0 l 357 0 l 614 1024 l 563 1024 z "},"w":{"ha":886,"x_min":0,"x_max":0,"o":"m 435 969 l 603 142 l 769 1024 l 719 1024 l 603 369 l 474 1024 l 464 1024 l 422 1024 l 418 1024 l 385 1024 l 368 1024 l 238 369 l 121 1024 l 71 1024 l 238 142 l 406 969 z m 618 54 l 589 54 l 421 882 l 251 54 l 224 54 l 38 1024 l -14 1024 l 185 0 l 197 0 l 235 0 l 240 0 l 276 0 l 290 0 l 421 653 l 550 0 l 565 0 l 601 0 l 606 0 l 644 0 l 656 0 l 854 1024 l 803 1024 z "},"x":{"ha":692,"x_min":0,"x_max":0,"o":"m 299 513 l 58 1024 l 4 1024 l 242 511 l 0 0 l 57 0 z m 540 1024 l 485 1024 l 315 665 l 150 1024 l 94 1024 l 317 551 z m 576 1024 l 335 513 l 576 0 l 628 0 l 388 511 l 631 1024 z m 93 0 l 146 0 l 315 358 l 483 0 l 540 0 l 317 474 z "},"y":{"ha":692,"x_min":0,"x_max":0,"o":"m 283 507 l 42 1024 l -14 1024 l 236 494 l 236 0 l 283 0 z m 521 1024 l 468 1024 l 301 647 l 136 1024 l 79 1024 l 300 546 z m 315 507 l 315 0 l 367 0 l 367 494 l 618 1024 l 558 1024 z "},"z":{"ha":558,"x_min":0,"x_max":0,"o":"m 472 897 l 472 1024 l 0 1024 l 0 974 l 425 974 l 425 906 l 107 110 l 107 82 l 494 82 l 494 131 l 169 131 z m 393 915 l 392 915 l 392 942 l 0 942 l 0 892 l 325 892 l 22 128 l 22 114 l 22 114 l 22 32 l 22 32 l 22 0 l 494 0 l 494 49 l 71 49 l 71 110 z "},"A":{"ha":651,"x_min":0,"x_max":0,"o":"m 97 0 l 149 0 l 214 285 l 392 285 l 458 0 l 508 0 l 431 335 l 175 335 z m 422 367 l 303 885 l 182 367 z m 244 417 l 303 667 l 361 417 z m 343 1024 l 304 1024 l 301 1024 l 263 1024 l 251 1024 l 14 0 l 64 0 l 288 965 l 318 965 l 542 0 l 593 0 l 356 1024 z "},"B":{"ha":522,"x_min":0,"x_max":0,"o":"m 389 525 b 449 736 429 574 449 643 b 389 946 449 828 429 897 b 197 1024 347 997 283 1024 l 0 1024 l 0 974 l 49 974 l 65 974 l 197 974 b 399 736 336 974 399 899 b 292 513 399 615 363 542 b 351 468 315 501 336 486 b 399 288 383 428 399 368 b 351 108 399 206 383 146 b 197 49 318 68 267 49 l 82 49 l 65 49 l 49 49 l 0 49 l 0 0 l 131 0 l 197 0 b 389 76 283 0 347 25 b 449 288 429 125 449 194 b 389 499 449 381 429 450 b 378 511 388 501 383 506 z m 49 82 l 49 942 l 0 942 l 0 131 l 0 82 z m 367 736 b 326 893 367 808 353 861 b 197 942 300 925 257 942 l 82 942 l 82 528 l 197 528 b 367 736 315 528 367 590 z m 131 892 l 197 892 b 317 736 265 892 317 881 b 288 608 317 674 307 632 b 197 578 278 593 257 578 l 131 578 z m 82 82 l 197 82 b 326 129 257 82 300 97 b 367 288 353 164 367 217 b 197 496 367 433 315 496 l 82 496 z m 131 446 l 197 446 b 317 288 263 446 317 435 b 197 131 317 142 265 131 l 131 131 z "},"C":{"ha":568,"x_min":0,"x_max":0,"o":"m 486 667 l 486 732 b 426 942 486 822 467 892 b 243 1024 397 979 343 1024 b 58 942 143 1024 88 979 b 0 732 19 893 0 822 l 0 292 b 58 82 0 200 19 131 b 243 0 88 44 143 0 b 426 82 343 0 397 44 b 486 292 467 132 486 201 l 486 358 l 436 358 l 436 292 b 243 49 436 90 331 49 b 49 292 154 49 49 90 l 49 732 b 97 913 49 810 65 869 b 243 974 131 953 179 974 b 389 913 307 974 356 953 b 436 732 421 872 436 811 l 436 667 z m 243 942 b 82 732 136 942 82 872 l 82 292 b 243 82 82 151 136 82 b 404 292 350 82 404 151 l 404 358 l 354 358 l 354 292 b 324 163 354 232 344 189 b 243 131 313 147 293 131 b 163 163 193 131 172 147 b 131 292 142 189 131 232 l 131 732 b 243 892 131 892 204 892 b 354 732 282 892 354 892 l 354 667 l 404 667 l 404 732 b 243 942 404 872 350 942 z "},"D":{"ha":556,"x_min":0,"x_max":0,"o":"m 49 942 l 0 942 l 0 82 l 49 82 z m 403 940 b 204 1024 358 996 292 1024 l 0 1024 l 0 974 l 49 974 l 65 974 l 204 974 b 365 910 275 974 329 953 b 415 726 399 868 415 807 l 415 296 b 365 113 415 215 399 154 b 204 49 328 69 275 49 l 65 49 l 49 49 l 0 49 l 0 0 l 204 0 b 403 82 292 0 358 28 b 464 296 443 131 464 203 l 464 726 b 403 940 464 819 443 892 z m 339 133 b 382 296 368 168 382 222 l 382 726 b 339 889 382 800 368 854 b 204 942 313 924 267 942 l 82 942 l 82 82 l 204 82 b 339 133 267 82 311 99 z m 131 892 l 204 892 b 332 726 269 892 332 879 l 332 296 b 204 131 332 143 269 131 l 131 131 z "},"E":{"ha":517,"x_min":0,"x_max":0,"o":"m 49 496 l 49 528 l 49 974 l 424 974 l 424 1024 l 0 1024 l 0 0 l 424 0 l 424 49 l 49 49 z m 424 496 l 82 496 l 82 82 l 424 82 l 424 131 l 131 131 l 131 446 l 424 446 z m 424 942 l 82 942 l 82 528 l 424 528 l 424 578 l 131 578 l 131 892 l 424 892 z "},"F":{"ha":500,"x_min":0,"x_max":0,"o":"m 424 942 l 82 942 l 82 528 l 354 528 l 354 578 l 131 578 l 131 892 l 424 892 z m 49 528 l 49 974 l 424 974 l 424 1024 l 0 1024 l 0 0 l 49 0 l 49 496 z m 82 0 l 131 0 l 131 446 l 354 446 l 354 496 l 82 496 z "},"G":{"ha":574,"x_min":0,"x_max":0,"o":"m 406 669 l 406 735 b 364 893 406 807 392 860 b 243 943 338 926 297 943 b 124 893 189 943 150 926 b 82 735 96 860 82 807 l 82 293 b 124 133 82 219 96 167 b 243 83 149 100 189 83 b 364 133 299 83 339 100 b 406 293 392 167 406 219 l 406 419 l 197 419 l 197 371 l 356 371 l 356 293 b 243 132 356 132 283 132 b 131 293 204 132 131 132 l 131 735 b 243 893 131 882 188 893 b 356 735 299 893 356 882 l 356 669 z m 488 669 l 488 735 b 428 944 488 825 468 896 b 243 1025 386 999 325 1025 b 60 944 163 1025 101 999 b 0 735 19 896 0 825 l 0 293 b 60 82 0 201 19 131 b 243 1 89 44 143 1 b 428 82 343 1 399 44 b 488 293 468 131 488 201 l 488 501 l 197 501 l 197 453 l 439 453 l 439 293 b 390 113 439 214 422 153 b 243 50 357 71 308 50 b 97 113 179 50 131 71 b 49 293 65 153 49 214 l 49 735 b 97 914 49 814 65 874 b 243 975 129 954 178 975 b 390 914 308 975 358 954 b 439 735 422 874 439 814 l 439 669 z "},"H":{"ha":568,"x_min":0,"x_max":0,"o":"m 49 529 l 49 1025 l 0 1025 l 0 1 l 49 1 l 49 496 z m 82 529 l 378 529 l 378 1025 l 328 1025 l 328 578 l 131 578 l 131 1025 l 82 1025 z m 378 496 l 82 496 l 82 1 l 131 1 l 131 447 l 328 447 l 328 1 l 378 1 z m 410 529 l 410 496 l 410 1 l 460 1 l 460 1025 l 410 1025 z "},"I":{"ha":281,"x_min":0,"x_max":0,"o":"m 42 1025 l 42 1 l 90 1 l 90 1025 z m 124 1 l 172 1 l 172 1025 l 124 1025 z "},"J":{"ha":563,"x_min":0,"x_max":0,"o":"m 82 339 l 82 274 b 119 128 82 208 94 160 b 229 83 143 99 181 83 b 339 128 279 83 315 99 b 376 274 364 160 376 208 l 376 1025 l 328 1025 l 328 274 b 301 158 328 219 319 182 b 229 132 292 147 275 132 b 131 274 193 132 131 132 l 131 339 z m 410 1025 l 410 274 b 365 107 410 200 394 144 b 229 50 335 69 289 50 b 94 107 169 50 125 69 b 49 274 64 144 49 200 l 49 339 l 0 339 l 0 274 b 56 76 0 189 18 122 b 229 1 83 42 136 1 b 403 76 324 1 376 42 b 458 274 440 122 458 189 l 458 1025 z "},"K":{"ha":594,"x_min":0,"x_max":0,"o":"m 50 1025 l 1 1025 l 1 375 l 0 372 l 1 372 l 1 1 l 50 1 z m 83 413 l 451 1025 l 394 1025 l 132 578 l 132 1025 l 83 1025 z m 83 351 l 83 1 l 132 1 l 132 336 l 182 421 l 392 1 l 447 1 l 183 517 z m 203 549 l 486 1 l 542 1 l 261 546 l 551 1025 l 490 1025 z "},"L":{"ha":494,"x_min":0,"x_max":0,"o":"m 82 83 l 446 83 l 446 132 l 131 132 l 131 1025 l 82 1025 z m 49 1025 l 0 1025 l 0 1 l 446 1 l 446 50 l 49 50 z "},"M":{"ha":747,"x_min":0,"x_max":0,"o":"m 82 1 l 131 1 l 131 492 l 272 1 l 371 1 l 513 492 l 513 1 l 561 1 l 561 843 l 322 7 l 82 843 z m 594 1025 l 579 1025 l 539 1025 l 528 1025 l 322 304 l 115 1025 l 94 1025 l 64 1025 l 49 1025 l 15 1025 l 0 1025 l 0 1 l 49 1 l 49 975 l 78 975 l 322 126 l 565 975 l 594 975 l 594 1 l 643 1 l 643 1025 l 617 1025 z "},"N":{"ha":590,"x_min":0,"x_max":0,"o":"m 442 53 l 414 53 l 82 876 l 82 3 l 131 3 l 131 622 l 381 3 l 397 3 l 435 3 l 442 3 l 476 3 l 492 3 l 492 1026 l 442 1026 z m 410 153 l 410 1026 l 360 1026 l 360 407 l 110 1026 l 93 1026 l 57 1026 l 49 1026 l 14 1026 l 0 1026 l 0 3 l 49 3 l 49 976 l 78 976 z "},"O":{"ha":571,"x_min":0,"x_max":0,"o":"m 243 944 b 124 894 189 944 149 928 b 82 736 96 861 82 808 l 82 294 b 243 85 82 154 136 85 b 404 294 350 85 404 154 l 404 736 b 363 894 404 808 390 861 b 243 944 338 928 297 944 z m 356 294 b 243 133 356 133 282 133 b 131 294 204 133 131 133 l 131 736 b 243 896 131 896 204 896 b 356 736 282 896 356 896 z m 428 946 b 243 1026 399 983 343 1026 b 58 946 143 1026 88 983 b 0 736 19 896 0 826 l 0 294 b 58 85 0 203 19 133 b 243 3 88 47 143 3 b 428 85 343 3 399 47 b 486 294 467 133 486 203 l 486 736 b 428 946 486 826 467 896 z m 438 294 b 389 115 438 215 421 156 b 243 51 354 72 306 51 b 97 115 181 51 132 72 b 49 294 65 156 49 215 l 49 736 b 97 915 49 815 65 875 b 243 978 131 957 179 978 b 389 915 307 978 356 957 b 438 736 421 875 438 815 z "},"P":{"ha":533,"x_min":0,"x_max":0,"o":"m 392 739 b 349 897 392 813 378 865 b 213 944 321 929 275 944 l 82 944 l 82 532 l 213 532 b 392 739 339 532 392 593 z m 131 896 l 213 896 b 342 739 297 896 342 871 b 311 613 342 678 332 636 b 213 581 304 603 285 581 l 131 581 z m 49 944 l 0 944 l 0 3 l 49 3 z m 411 950 b 213 1026 367 1001 300 1026 l 0 1026 l 0 978 l 49 978 l 79 978 l 213 978 b 424 739 357 978 424 901 b 213 499 424 574 357 499 l 82 499 l 82 3 l 131 3 l 131 450 l 213 450 b 411 526 300 450 367 475 b 474 739 453 575 474 646 b 411 950 474 832 453 903 z "},"Q":{"ha":563,"x_min":0,"x_max":0,"o":"m 358 83 b 243 49 326 60 289 49 b 97 114 179 49 131 71 b 49 297 65 157 49 218 l 49 736 b 243 974 49 894 114 974 b 436 736 372 974 436 894 l 436 297 b 389 114 436 219 421 158 b 382 107 385 110 386 108 l 522 -62 l 582 -62 l 442 107 b 486 297 471 156 486 219 l 486 736 b 243 1024 486 986 333 1024 b 0 736 150 1024 0 986 l 0 297 b 58 85 0 206 19 135 b 243 0 88 46 143 0 b 344 19 282 0 315 7 l 411 -62 l 479 -62 z m 318 253 l 260 253 l 360 132 b 403 297 389 167 403 222 l 403 736 b 243 942 403 876 354 942 b 82 736 132 942 82 876 l 82 297 b 243 82 82 154 136 82 b 338 110 282 82 314 92 l 217 253 l 154 253 l 253 131 l 243 131 b 163 164 193 131 174 149 b 131 297 142 190 131 235 l 131 736 b 243 892 131 881 188 892 b 354 736 297 892 354 881 l 354 297 b 347 217 354 269 351 238 z "},"R":{"ha":543,"x_min":0,"x_max":0,"o":"m 393 0 l 393 303 b 213 488 393 421 328 488 l 196 488 l 82 488 l 82 0 l 131 0 l 131 438 l 147 438 l 213 438 b 343 303 300 438 343 393 l 343 0 z m 49 942 l 0 942 l 0 0 l 49 0 z m 213 521 b 390 732 339 521 390 582 b 349 893 390 806 376 860 b 213 942 321 925 275 942 l 82 942 l 82 521 l 196 521 z m 131 569 l 131 892 l 213 892 b 342 732 297 892 342 869 b 311 601 342 671 332 628 b 213 569 304 592 283 569 l 147 569 z m 397 503 b 411 517 403 507 407 513 b 472 732 451 565 472 638 b 411 946 472 828 451 899 b 213 1024 367 997 300 1024 l 0 1024 l 0 974 l 49 974 l 65 974 l 213 974 b 374 914 286 974 339 954 b 424 732 407 875 424 814 b 307 503 424 608 385 532 b 365 465 329 493 349 481 b 425 303 406 425 425 371 l 425 0 l 475 0 l 475 303 b 397 503 475 388 447 454 z "},"T":{"ha":588,"x_min":0,"x_max":0,"o":"m 264 974 l 510 974 l 510 1024 l -14 1024 l -14 974 l 232 974 z m 232 942 l -14 942 l -14 892 l 182 892 l 182 0 l 232 0 z m 264 49 l 264 0 l 314 0 l 314 892 l 510 892 l 510 942 l 264 942 z "},"U":{"ha":563,"x_min":0,"x_max":0,"o":"m 82 1024 l 82 272 b 119 126 82 207 94 158 b 229 82 143 97 181 82 b 339 126 279 82 315 97 b 376 272 364 158 376 207 l 376 1024 l 328 1024 l 328 272 b 229 131 328 131 265 131 b 131 272 193 131 131 131 l 131 1024 z m 410 1024 l 410 272 b 364 107 410 199 394 144 b 229 49 335 68 289 49 b 94 107 169 49 125 68 b 49 272 64 144 49 199 l 49 1024 l 0 1024 l 0 272 b 56 76 0 188 18 122 b 229 0 83 39 136 0 b 403 76 322 0 375 39 b 458 272 440 122 458 188 l 458 1024 z "},"V":{"ha":640,"x_min":0,"x_max":0,"o":"m 479 1024 l 306 336 l 135 1024 l 83 1024 l 306 133 l 528 1024 z m 319 54 l 292 54 l 49 1024 l 0 1024 l 254 0 l 267 0 l 306 0 l 307 0 l 344 0 l 357 0 l 614 1024 l 563 1024 z "},"W":{"ha":886,"x_min":0,"x_max":0,"o":"m 435 969 l 603 142 l 769 1024 l 719 1024 l 603 369 l 474 1024 l 464 1024 l 422 1024 l 418 1024 l 385 1024 l 368 1024 l 238 369 l 121 1024 l 71 1024 l 238 142 l 406 969 z m 618 54 l 589 54 l 421 882 l 251 54 l 224 54 l 38 1024 l -14 1024 l 185 0 l 197 0 l 235 0 l 240 0 l 276 0 l 290 0 l 421 653 l 550 0 l 565 0 l 601 0 l 606 0 l 644 0 l 656 0 l 854 1024 l 803 1024 z "},"X":{"ha":692,"x_min":0,"x_max":0,"o":"m 299 513 l 58 1024 l 4 1024 l 242 511 l 0 0 l 57 0 z m 540 1024 l 485 1024 l 315 665 l 150 1024 l 94 1024 l 317 551 z m 576 1024 l 335 513 l 576 0 l 628 0 l 388 511 l 631 1024 z m 93 0 l 146 0 l 315 358 l 483 0 l 540 0 l 317 474 z "},"Y":{"ha":692,"x_min":0,"x_max":0,"o":"m 283 507 l 42 1024 l -14 1024 l 236 494 l 236 0 l 283 0 z m 521 1024 l 468 1024 l 301 647 l 136 1024 l 79 1024 l 300 546 z m 315 507 l 315 0 l 367 0 l 367 494 l 618 1024 l 558 1024 z "},"Z":{"ha":556,"x_min":0,"x_max":0,"o":"m 472 897 l 472 1024 l 0 1024 l 0 974 l 425 974 l 425 906 l 107 110 l 107 82 l 494 82 l 494 131 l 169 131 z m 393 915 l 392 915 l 392 942 l 0 942 l 0 892 l 325 892 l 22 128 l 22 114 l 22 114 l 22 32 l 22 32 l 22 0 l 494 0 l 494 49 l 71 49 l 71 110 z "},"!":{"ha":203,"x_min":0,"x_max":0,"o":"m 0 1026 l 0 226 l 49 226 l 49 1026 z m 82 226 l 131 226 l 131 1026 l 82 1026 z m 49 51 l 49 150 l 0 150 l 0 3 l 131 3 l 131 150 l 82 150 l 82 51 z "},"\"":{"ha":393,"x_min":0,"x_max":0,"o":"m 131 817 l 131 1026 l 0 1026 l 0 817 z m 82 976 l 82 865 l 49 865 l 49 976 z m 193 817 l 324 817 l 324 1026 l 193 1026 z m 242 865 l 242 976 l 275 976 l 275 865 z "},"#":{"ha":793,"x_min":0,"x_max":0,"o":"m 464 399 l 510 629 l 301 629 l 257 399 z m 450 579 l 424 449 l 317 449 l 343 579 z m 346 1026 l 296 1026 l 235 711 l 15 711 l 15 661 l 275 661 z m 549 661 l 767 661 l 767 711 l 608 711 l 668 1026 l 621 1026 z m 308 661 l 515 661 l 588 1026 l 535 1026 l 475 711 l 368 711 l 429 1026 l 381 1026 z m 217 367 l -28 367 l -28 317 l 157 317 l 96 0 l 144 0 z m 268 629 l 15 629 l 15 579 l 208 579 l 183 449 l -28 449 l -28 399 l 224 399 z m 418 0 l 471 0 l 532 317 l 724 317 l 724 367 l 490 367 z m 497 399 l 724 399 l 724 449 l 557 449 l 583 579 l 767 579 l 767 629 l 543 629 z m 457 367 l 250 367 l 178 0 l 229 0 l 292 317 l 399 317 l 338 0 l 385 0 z "},"$":{"ha":494,"x_min":0,"x_max":0,"o":"m 233 1026 l 233 908 b 343 856 282 906 318 888 b 385 700 371 821 385 768 l 385 635 l 435 635 l 435 700 b 382 886 435 779 417 840 b 283 950 361 910 332 935 l 283 1026 z m 165 461 b 183 451 172 457 179 456 b 213 438 190 447 200 442 b 303 321 264 411 303 392 b 217 200 303 276 292 200 b 156 224 178 200 163 214 b 131 326 139 243 131 278 l 131 393 l 82 393 l 82 326 b 117 193 82 264 93 219 b 217 151 139 165 172 151 b 351 321 301 151 351 215 b 233 482 351 425 279 461 l 208 494 b 188 506 203 499 197 501 b 100 564 161 518 128 535 b 49 700 65 601 49 646 b 90 846 49 760 64 808 b 200 908 117 883 156 904 l 200 1026 l 151 1026 l 151 949 b 50 875 108 933 75 910 b 0 700 18 829 0 771 b 64 531 0 632 21 576 b 165 461 99 493 139 476 z m 267 557 b 250 564 261 560 256 563 b 225 578 243 569 235 574 b 131 700 169 604 131 632 b 217 826 131 731 138 826 b 279 804 256 826 269 814 b 303 700 294 783 303 749 l 303 635 l 351 635 l 351 700 b 318 835 351 760 340 806 b 217 876 296 863 263 876 b 117 826 174 876 140 860 b 82 700 93 794 82 753 b 203 535 82 594 153 558 b 225 522 213 529 219 526 b 247 511 231 518 238 515 b 385 321 296 489 385 447 b 343 178 385 261 371 214 b 233 119 315 142 279 122 l 233 0 l 283 0 l 283 79 b 382 149 324 90 356 114 b 435 321 417 194 435 251 b 267 557 435 479 317 533 z m 200 0 l 200 119 b 90 172 154 122 117 140 b 49 326 63 208 49 260 l 49 393 l 0 393 l 0 326 b 53 142 0 247 18 185 b 151 78 71 118 103 90 l 151 0 z "},"%":{"ha":854,"x_min":0,"x_max":0,"o":"m 629 422 b 553 333 574 422 553 374 l 553 214 b 629 125 553 174 574 125 b 704 214 685 125 704 171 l 704 333 b 629 422 704 376 685 422 z m 656 214 b 629 174 656 188 647 174 b 603 214 611 174 603 188 l 603 333 b 629 374 603 360 611 374 b 656 333 647 374 656 360 z m 629 504 b 471 333 536 504 471 433 l 471 214 b 629 43 471 114 536 43 b 786 214 719 43 786 114 l 786 333 b 629 504 786 433 719 504 z m 738 214 b 710 129 738 181 728 153 b 629 92 689 104 663 92 b 547 129 594 92 568 104 b 521 214 529 151 521 182 l 521 333 b 547 417 521 365 529 396 b 629 456 568 443 594 456 b 710 417 663 456 689 443 b 738 333 728 396 738 368 z m 233 813 b 157 901 233 853 213 901 b 82 813 101 901 82 856 l 82 693 b 157 604 82 650 101 604 b 233 693 213 604 233 653 z m 131 813 b 157 853 131 839 139 853 b 183 813 175 853 183 839 l 183 693 b 157 653 183 667 175 653 b 131 693 139 653 131 667 z m 315 813 b 157 983 315 913 250 983 b 0 813 67 983 0 913 l 0 693 b 157 522 0 593 67 522 b 315 693 250 522 315 593 z m 76 608 b 49 693 58 632 49 660 l 49 813 b 76 896 49 847 58 875 b 157 935 97 922 124 935 b 239 896 192 935 218 922 b 265 813 257 875 265 844 l 265 693 b 239 608 265 658 257 629 b 157 571 218 583 192 571 b 76 608 124 571 97 583 z m 514 1026 l 135 3 l 185 3 l 569 1026 z m 604 1026 l 221 3 l 275 3 l 654 1026 z "},"&":{"ha":703,"x_min":0,"x_max":0,"o":"m 82 276 b 254 85 82 182 136 85 b 447 188 344 85 410 119 l 250 526 l 201 483 b 82 276 135 428 82 382 z m 238 450 l 389 189 b 254 133 358 151 314 133 b 131 276 165 133 131 210 b 233 446 131 360 169 389 z m 522 60 l 467 156 b 254 51 419 86 349 51 b 103 118 192 51 142 74 b 49 276 68 158 49 215 b 181 508 49 397 113 451 b 232 554 197 524 215 538 b 142 792 210 592 142 697 b 164 926 142 851 149 897 b 254 976 183 960 214 976 b 347 917 300 976 331 957 b 367 792 364 879 367 831 b 275 549 367 656 300 574 l 464 224 b 497 446 493 297 497 385 l 497 513 l 447 513 l 447 446 b 444 357 447 419 449 389 l 335 543 l 358 578 b 415 792 396 639 415 714 b 393 936 415 836 414 892 b 254 1026 367 996 319 1026 b 121 949 194 1026 150 1000 b 92 792 101 913 92 860 b 168 563 92 710 136 617 l 149 546 b 0 276 78 486 0 422 b 65 86 0 201 22 138 b 254 3 111 32 178 3 b 458 72 336 3 404 26 l 503 3 l 557 3 z m 579 513 l 529 513 l 529 446 b 488 194 529 378 525 278 b 485 189 486 190 485 189 l 550 76 l 596 3 l 658 3 l 540 192 b 579 446 575 279 579 378 z m 254 944 b 174 792 214 944 174 926 b 256 578 174 714 233 615 b 333 792 282 604 333 675 b 254 944 333 903 311 944 z m 260 671 b 224 792 239 710 224 754 b 238 888 224 851 231 875 b 254 894 242 893 242 894 b 272 883 267 894 268 893 b 283 792 283 858 283 807 b 260 671 283 742 272 703 z "},"'":{"ha":219,"x_min":0,"x_max":0,"o":"m 0 817 l 131 817 l 131 1026 l 0 1026 z m 49 976 l 82 976 l 82 865 l 49 865 z "},"`":{"ha":219,"x_min":0,"x_max":0,"o":"m 0 817 l 131 817 l 131 1026 l 0 1026 z m 49 976 l 82 976 l 82 865 l 49 865 z "},"‘":{"ha":219,"x_min":0,"x_max":0,"o":"m 0 817 l 131 817 l 131 1026 l 0 1026 z m 49 976 l 82 976 l 82 865 l 49 865 z "},"’":{"ha":219,"x_min":0,"x_max":0,"o":"m 0 817 l 131 817 l 131 1026 l 0 1026 z m 49 976 l 82 976 l 82 865 l 49 865 z "},"(":{"ha":286,"x_min":0,"x_max":0,"o":"m 179 54 b 49 511 175 58 49 138 b 179 975 49 885 174 972 l 153 1015 b 67 903 142 1008 104 981 b 0 511 22 806 0 675 b 68 124 0 346 22 217 b 154 11 106 46 143 18 l 181 53 z m 131 511 b 226 907 129 829 226 907 b 224 906 225 906 224 906 l 197 947 b 179 929 192 943 186 936 b 140 864 167 915 153 893 b 82 511 114 804 82 696 b 140 163 82 328 114 219 b 179 99 156 131 168 111 b 197 82 186 92 192 86 l 199 81 l 225 122 b 131 511 218 129 131 210 z "},")":{"ha":297,"x_min":0,"x_max":0,"o":"m 32 82 b 50 100 38 86 43 93 b 89 165 61 113 74 133 b 146 517 115 225 146 332 b 89 867 146 701 115 807 b 50 929 75 896 63 917 b 32 947 43 936 38 943 l 29 949 l 1 904 b 94 515 10 896 94 821 b 0 119 94 197 1 119 l 3 122 l 29 81 z m 158 904 b 72 1015 121 982 83 1008 l 47 976 l 49 975 b 179 517 54 969 179 892 b 49 54 179 140 53 58 l 47 53 l 74 11 b 158 125 85 21 124 47 b 226 515 204 221 226 351 b 158 904 226 681 204 811 z "},"*":{"ha":511,"x_min":0,"x_max":0,"o":"m 244 829 l 426 899 l 410 943 l 293 900 l 293 1025 l 244 1025 z m 211 1025 l 163 1025 l 163 900 l 46 943 l 29 897 l 211 829 z m 390 646 l 428 678 l 340 778 l 456 821 l 438 868 l 256 799 z m 67 644 l 200 799 l 17 867 l 0 821 l 115 778 l 28 678 z m 90 624 l 126 592 l 228 706 l 329 592 l 365 624 l 228 781 z "},"+":{"ha":635,"x_min":0,"x_max":0,"o":"m 285 531 l 538 531 l 538 579 l 335 579 l 335 782 l 285 782 z m 253 782 l 203 782 l 203 579 l 0 579 l 0 531 l 253 531 z m 285 244 l 335 244 l 335 449 l 538 449 l 538 497 l 285 497 z m 253 497 l 0 497 l 0 449 l 203 449 l 203 244 l 253 244 z "},",":{"ha":219,"x_min":0,"x_max":0,"o":"m 0 6 l 131 -119 l 131 149 l 0 149 z m 49 31 l 49 99 l 82 99 l 82 0 z "},".":{"ha":258,"x_min":0,"x_max":0,"o":"m 0 1 l 131 1 l 131 149 l 0 149 z m 49 50 l 49 99 l 82 99 l 82 50 z "},"-":{"ha":522,"x_min":0,"x_max":0,"o":"m 419 531 l 419 579 l 0 579 l 0 531 z m 419 497 l 0 497 l 0 449 l 419 449 z "},"/":{"ha":579,"x_min":0,"x_max":0,"o":"m 379 1026 l 0 3 l 51 3 l 435 1026 z m 86 3 l 140 3 l 519 1026 l 469 1026 z "},":":{"ha":203,"x_min":0,"x_max":0,"o":"m 0 611 l 131 611 l 131 804 l 0 804 z m 49 660 l 49 756 l 82 756 l 82 660 z m 131 229 l 131 422 l 0 422 l 0 229 z m 82 372 l 82 278 l 49 278 l 49 372 z "},";":{"ha":219,"x_min":0,"x_max":0,"o":"m 0 611 l 131 611 l 131 804 l 0 804 z m 49 660 l 49 756 l 82 756 l 82 660 z m 131 157 l 131 422 l 0 422 l 0 289 z m 82 372 l 82 272 l 49 304 l 49 372 z "},"=":{"ha":1157,"x_min":0,"x_max":0,"o":"m 419 683 l 419 732 l 0 732 l 0 683 z m 419 650 l 0 650 l 0 601 l 419 601 z m 419 378 l 419 426 l 0 426 l 0 378 z m 419 344 l 0 344 l 0 296 l 419 296 z "},"?":{"ha":506,"x_min":0,"x_max":0,"o":"m 167 515 b 114 296 114 451 114 382 l 114 228 l 164 228 l 164 296 b 204 483 164 374 164 435 l 225 504 b 351 750 268 547 351 631 b 317 886 351 804 340 850 b 217 944 292 925 258 944 b 82 743 126 944 82 878 l 82 676 l 131 676 l 131 743 b 217 894 131 894 190 894 b 303 749 281 894 303 807 b 190 539 299 649 229 578 z m 435 754 l 433 754 b 386 931 432 822 417 882 b 217 1026 347 993 288 1026 b 50 942 143 1026 88 999 b 0 743 17 894 0 828 l 0 676 l 49 676 l 49 743 b 90 914 49 818 63 875 b 217 976 119 956 161 976 b 344 904 271 976 313 953 b 385 754 368 865 383 814 l 385 743 b 249 482 378 613 293 526 l 229 463 b 196 296 196 422 196 369 l 196 228 l 246 228 l 246 296 b 267 431 246 368 246 404 l 283 447 b 433 743 331 494 429 594 l 435 743 z m 196 51 l 163 51 l 163 150 l 114 150 l 114 3 l 244 3 l 244 150 l 196 150 z "},"_":{"ha":646,"x_min":0,"x_max":0,"o":"m 649 0 l 0 0 l 0 -50 l 649 -50 z m 0 -132 l 649 -132 l 649 -82 l 0 -82 z "},"|":{"ha":281,"x_min":0,"x_max":0,"o":"m 42 1025 l 42 1 l 90 1 l 90 1025 z m 124 1 l 172 1 l 172 1025 l 124 1025 z "},"\\":{"ha":533,"x_min":0,"x_max":0,"o":"m 468 1 l 519 1 l 140 1025 l 85 1025 z m 0 1025 l 379 1 l 433 1 l 50 1025 z "},"@":{"ha":961,"x_min":0,"x_max":0,"o":"m 550 313 b 574 310 554 311 563 310 b 767 433 636 310 738 356 b 744 749 804 531 797 669 b 385 883 669 860 532 914 b 61 528 253 854 94 747 b 214 150 35 360 88 228 b 764 178 371 53 613 67 l 781 190 l 817 218 l 788 257 l 735 218 b 240 192 597 118 381 107 b 110 519 129 258 86 371 b 394 835 136 686 243 803 b 703 722 524 861 639 817 b 721 451 747 657 754 532 b 631 372 710 419 674 390 b 572 358 604 361 585 358 b 619 646 583 418 619 644 l 631 710 l 582 718 b 522 357 565 626 528 390 b 550 313 518 333 528 318 z m 499 628 b 413 646 481 640 451 646 b 279 503 333 646 292 603 b 296 401 274 454 279 421 b 378 375 311 383 338 375 b 519 544 458 375 490 375 b 499 628 529 599 514 617 z m 471 553 b 435 432 456 469 444 442 b 378 425 428 425 410 425 b 333 433 354 425 339 428 b 328 497 328 440 324 460 b 413 596 339 589 374 596 b 471 586 446 596 465 590 b 471 553 472 582 475 575 z m 783 151 b 493 54 704 94 603 60 b 463 53 482 53 472 53 b 197 122 363 53 271 76 b 29 533 58 207 0 351 b 156 794 46 638 89 726 b 378 915 218 857 292 897 b 772 767 538 949 693 890 b 822 597 801 721 818 664 b 797 421 826 535 818 472 b 683 306 779 375 738 333 b 542 281 632 279 579 271 b 490 361 503 290 483 318 b 492 372 490 365 490 369 b 378 342 463 344 426 342 b 272 379 328 342 293 354 b 247 507 247 407 239 450 b 413 678 261 621 317 678 b 517 654 439 678 485 675 b 535 639 524 650 529 644 l 549 724 l 500 732 l 499 717 b 413 728 467 726 439 728 b 260 667 349 728 297 707 b 199 514 228 632 207 581 b 235 347 189 440 201 385 b 378 293 267 311 314 293 b 449 299 399 293 422 293 b 528 233 464 265 490 243 b 706 261 578 218 643 229 b 843 403 771 296 821 346 b 872 601 867 460 876 531 b 814 793 867 674 846 743 b 368 963 719 936 549 1000 b 121 828 274 942 188 899 b -19 540 46 751 -1 656 b 10 261 -36 435 -26 342 b 171 81 43 185 97 125 b 463 3 256 29 357 3 b 813 113 589 3 713 40 l 865 150 l 836 192 z "},"“":{"ha":393,"x_min":0,"x_max":0,"o":"m 131 817 l 131 1026 l 0 1026 l 0 817 z m 82 976 l 82 865 l 49 865 l 49 976 z m 193 817 l 324 817 l 324 1026 l 193 1026 z m 242 865 l 242 976 l 275 976 l 275 865 z "},"”":{"ha":393,"x_min":0,"x_max":0,"o":"m 131 817 l 131 1026 l 0 1026 l 0 817 z m 82 976 l 82 865 l 49 865 l 49 976 z m 193 817 l 324 817 l 324 1026 l 193 1026 z m 242 865 l 242 976 l 275 976 l 275 865 z "},"c":{"ha":568,"x_min":0,"x_max":0,"o":"m 486 667 l 486 732 b 426 942 486 822 467 892 b 243 1024 397 979 343 1024 b 58 942 143 1024 88 979 b 0 732 19 893 0 822 l 0 292 b 58 82 0 200 19 131 b 243 0 88 44 143 0 b 426 82 343 0 397 44 b 486 292 467 132 486 201 l 486 358 l 436 358 l 436 292 b 243 49 436 90 331 49 b 49 292 154 49 49 90 l 49 732 b 97 913 49 810 65 869 b 243 974 131 953 179 974 b 389 913 307 974 356 953 b 436 732 421 872 436 811 l 436 667 z m 243 942 b 82 732 136 942 82 872 l 82 292 b 243 82 82 151 136 82 b 404 292 350 82 404 151 l 404 358 l 354 358 l 354 292 b 324 163 354 232 344 189 b 243 131 313 147 293 131 b 163 163 193 131 172 147 b 131 292 142 189 131 232 l 131 732 b 243 892 131 892 204 892 b 354 732 282 892 354 892 l 354 667 l 404 667 l 404 732 b 243 942 404 872 350 942 z "},"a":{"ha":651,"x_min":0,"x_max":0,"o":"m 97 0 l 149 0 l 214 285 l 392 285 l 458 0 l 508 0 l 431 335 l 175 335 z m 422 367 l 303 885 l 182 367 z m 244 417 l 303 667 l 361 417 z m 343 1024 l 304 1024 l 301 1024 l 263 1024 l 251 1024 l 14 0 l 64 0 l 288 965 l 318 965 l 542 0 l 593 0 l 356 1024 z "},"b":{"ha":522,"x_min":0,"x_max":0,"o":"m 389 525 b 449 736 429 574 449 643 b 389 946 449 828 429 897 b 197 1024 347 997 283 1024 l 0 1024 l 0 974 l 49 974 l 65 974 l 197 974 b 399 736 336 974 399 899 b 292 513 399 615 363 542 b 351 468 315 501 336 486 b 399 288 383 428 399 368 b 351 108 399 206 383 146 b 197 49 318 68 267 49 l 82 49 l 65 49 l 49 49 l 0 49 l 0 0 l 131 0 l 197 0 b 389 76 283 0 347 25 b 449 288 429 125 449 194 b 389 499 449 381 429 450 b 378 511 388 501 383 506 z m 49 82 l 49 942 l 0 942 l 0 131 l 0 82 z m 367 736 b 326 893 367 808 353 861 b 197 942 300 925 257 942 l 82 942 l 82 528 l 197 528 b 367 736 315 528 367 590 z m 131 892 l 197 892 b 317 736 265 892 317 881 b 288 608 317 674 307 632 b 197 578 278 593 257 578 l 131 578 z m 82 82 l 197 82 b 326 129 257 82 300 97 b 367 288 353 164 367 217 b 197 496 367 433 315 496 l 82 496 z m 131 446 l 197 446 b 317 288 263 446 317 435 b 197 131 317 142 265 131 l 131 131 z "},"–":{"ha":522,"x_min":0,"x_max":0,"o":"m 419 531 l 419 579 l 0 579 l 0 531 z m 419 497 l 0 497 l 0 449 l 419 449 z "},"—":{"ha":522,"x_min":0,"x_max":0,"o":"m 419 531 l 419 579 l 0 579 l 0 531 z m 419 497 l 0 497 l 0 449 l 419 449 z "},"g":{"ha":574,"x_min":0,"x_max":0,"o":"m 406 669 l 406 735 b 364 893 406 807 392 860 b 243 943 338 926 297 943 b 124 893 189 943 150 926 b 82 735 96 860 82 807 l 82 293 b 124 133 82 219 96 167 b 243 83 149 100 189 83 b 364 133 299 83 339 100 b 406 293 392 167 406 219 l 406 419 l 197 419 l 197 371 l 356 371 l 356 293 b 243 132 356 132 283 132 b 131 293 204 132 131 132 l 131 735 b 243 893 131 882 188 893 b 356 735 299 893 356 882 l 356 669 z m 488 669 l 488 735 b 428 944 488 825 468 896 b 243 1025 386 999 325 1025 b 60 944 163 1025 101 999 b 0 735 19 896 0 825 l 0 293 b 60 82 0 201 19 131 b 243 1 89 44 143 1 b 428 82 343 1 399 44 b 488 293 468 131 488 201 l 488 501 l 197 501 l 197 453 l 439 453 l 439 293 b 390 113 439 214 422 153 b 243 50 357 71 308 50 b 97 113 179 50 131 71 b 49 293 65 153 49 214 l 49 735 b 97 914 49 814 65 874 b 243 975 129 954 178 975 b 390 914 308 975 358 954 b 439 735 422 874 439 814 l 439 669 z "},"d":{"ha":558,"x_min":0,"x_max":0,"o":"m 49 942 l 0 942 l 0 82 l 49 82 z m 403 940 b 204 1024 358 996 292 1024 l 0 1024 l 0 974 l 49 974 l 65 974 l 204 974 b 365 910 275 974 329 953 b 415 726 399 868 415 807 l 415 296 b 365 113 415 215 399 154 b 204 49 328 69 275 49 l 65 49 l 49 49 l 0 49 l 0 0 l 204 0 b 403 82 292 0 358 28 b 464 296 443 131 464 203 l 464 726 b 403 940 464 819 443 892 z m 339 133 b 382 296 368 168 382 222 l 382 726 b 339 889 382 800 368 854 b 204 942 313 924 267 942 l 82 942 l 82 82 l 204 82 b 339 133 267 82 311 99 z m 131 892 l 204 892 b 332 726 269 892 332 879 l 332 296 b 204 131 332 143 269 131 l 131 131 z "},"f":{"ha":500,"x_min":0,"x_max":0,"o":"m 424 942 l 82 942 l 82 528 l 354 528 l 354 578 l 131 578 l 131 892 l 424 892 z m 49 528 l 49 974 l 424 974 l 424 1024 l 0 1024 l 0 0 l 49 0 l 49 496 z m 82 0 l 131 0 l 131 446 l 354 446 l 354 496 l 82 496 z "},"˘":{"ha":1157,"x_min":0,"x_max":0,"o":""},"˙":{"ha":1157,"x_min":0,"x_max":0,"o":""},"˚":{"ha":1157,"x_min":0,"x_max":0,"o":""},"˝":{"ha":1157,"x_min":0,"x_max":0,"o":""},"˛":{"ha":1157,"x_min":0,"x_max":0,"o":""},"ˇ":{"ha":1157,"x_min":0,"x_max":0,"o":""},"ı":{"ha":281,"x_min":0,"x_max":0,"o":"m 42 1025 l 42 1 l 90 1 l 90 1025 z m 124 1 l 172 1 l 172 1025 l 124 1025 z "},"<":{"ha":1157,"x_min":0,"x_max":0,"o":""},">":{"ha":1157,"x_min":0,"x_max":0,"o":""},"®":{"ha":1157,"x_min":0,"x_max":0,"o":""},"©":{"ha":1157,"x_min":0,"x_max":0,"o":""},"™":{"ha":1388,"x_min":0,"x_max":0,"o":""},"˜":{"ha":1157,"x_min":0,"x_max":0,"o":""},"ˆ":{"ha":1157,"x_min":0,"x_max":0,"o":""},"•":{"ha":1157,"x_min":0,"x_max":0,"o":""},"S":{"ha":551,"x_min":0,"x_max":0,"o":"m 403 488 b 282 560 358 531 308 549 l 260 569 b 131 731 194 594 131 636 b 244 892 131 769 139 892 b 357 731 283 892 357 892 l 357 665 l 407 665 l 407 731 b 365 892 407 803 393 857 b 244 942 339 925 299 942 b 82 731 125 942 82 826 b 240 524 82 594 189 546 l 263 514 b 439 283 311 496 439 443 b 390 118 439 217 422 158 b 244 49 357 72 306 49 b 97 110 179 49 131 69 b 49 290 65 150 49 211 l 49 356 l 0 356 l 0 290 b 60 79 0 199 19 128 b 244 0 101 26 163 0 b 431 88 324 0 385 29 b 489 283 469 139 489 204 b 403 488 489 367 460 435 z m 83 525 b 207 449 128 482 178 461 l 232 438 b 357 283 292 411 357 379 b 244 131 357 226 344 131 b 163 161 193 131 172 149 b 131 290 142 188 131 231 l 131 356 l 82 356 l 82 290 b 124 131 82 218 96 165 b 244 82 150 99 190 82 b 407 283 346 82 407 156 b 250 483 407 421 297 465 l 226 494 b 49 731 174 517 49 569 b 97 901 49 801 65 858 b 244 974 132 950 182 974 b 390 911 310 974 358 953 b 439 731 422 872 439 813 l 439 665 l 489 665 l 489 731 b 429 943 489 821 469 892 b 244 1024 400 981 344 1024 b 0 731 99 1024 0 904 b 83 525 0 647 28 579 z "}}}
